<svg width="11" height="12" viewBox="0 0 11 12" fill="none" xmlns="http://www.w3.org/2000/svg">
<path d="M9.27994 4.43641L9.27994 4.43469C9.28106 3.89283 9.07286 3.37182 8.69938 2.98092C8.32758 2.59384 7.82414 2.37817 7.29993 2.37803C7.03839 2.37878 6.77965 2.43244 6.5392 2.53583C6.29858 2.63928 6.08118 2.79042 5.90006 2.98025L5.8986 2.98179L5.89859 2.98178L5.78782 3.09665C5.71252 3.17473 5.60874 3.21889 5.50027 3.21899C5.39179 3.21909 5.28793 3.17513 5.21248 3.09719L5.10129 2.98233L5.09868 2.97963L5.09869 2.97961C4.91815 2.78956 4.70107 2.63832 4.46065 2.53501C4.22023 2.4317 3.96144 2.37845 3.69996 2.37845C3.43848 2.37845 3.17969 2.4317 2.93927 2.53501C2.69885 2.63832 2.48177 2.78956 2.30123 2.97961L2.29946 2.98146C1.52681 3.78448 1.52672 5.0865 2.2995 5.89003L9.27994 4.43641ZM9.27994 4.43641C9.28115 4.97819 9.07311 5.49916 8.6998 5.8901C8.35445 6.24924 8.01612 6.60965 7.67948 6.96825C7.00836 7.68316 6.34397 8.3909 5.64407 9.06715C5.56026 9.14576 5.42776 9.1421 5.34885 9.0602C5.34883 9.06017 5.3488 9.06014 5.34878 9.06012L2.29952 5.89005L9.27994 4.43641Z" fill="white" stroke="white" stroke-width="0.8" stroke-linejoin="round"/>
</svg>
