<svg width="20" height="20" viewBox="0 0 20 20" fill="234F68" xmlns="http://www.w3.org/2000/svg">
<path d="M16.6668 8.33335C16.6668 12.015 10.0002 18.3334 10.0002 18.3334C10.0002 18.3334 3.3335 12.015 3.3335 8.33335C3.3335 6.56524 4.03588 4.86955 5.28612 3.61931C6.53636 2.36907 8.23205 1.66669 10.0002 1.66669C11.7683 1.66669 13.464 2.36907 14.7142 3.61931C15.9645 4.86955 16.6668 6.56524 16.6668 8.33335V8.33335Z" stroke="234F68" stroke-width="1.25"/>
<path d="M10 8.99994C10.2652 8.99994 10.5196 8.89458 10.7071 8.70705C10.8946 8.51951 11 8.26516 11 7.99994C11 7.73472 10.8946 7.48037 10.7071 7.29283C10.5196 7.1053 10.2652 6.99994 10 6.99994C9.73478 6.99994 9.48043 7.1053 9.29289 7.29283C9.10536 7.48037 9 7.73472 9 7.99994C9 8.26516 9.10536 8.51951 9.29289 8.70705C9.48043 8.89458 9.73478 8.99994 10 8.99994Z" fill="white" stroke="white" stroke-width="1.25" stroke-linecap="round" stroke-linejoin="round"/>
</svg>
