<svg width="20" height="20" viewBox="0 0 20 20" fill="none" xmlns="http://www.w3.org/2000/svg">
<path d="M18.3332 10C18.3332 5.39752 14.6023 1.66669 9.99984 1.66669C5.39734 1.66669 1.6665 5.39752 1.6665 10C1.6665 14.6025 5.39734 18.3334 9.99984 18.3334" stroke="#252B5C" stroke-width="1.6" stroke-linecap="round" stroke-linejoin="round"/>
<path d="M10.833 1.70837C10.833 1.70837 13.333 5.00004 13.333 10" stroke="#252B5C" stroke-width="1.6" stroke-linecap="round" stroke-linejoin="round"/>
<path d="M9.1665 18.2917C9.1665 18.2917 6.6665 15 6.6665 10C6.6665 5.00004 9.1665 1.70837 9.1665 1.70837" stroke="#252B5C" stroke-width="1.6" stroke-linecap="round" stroke-linejoin="round"/>
<path d="M2.19141 12.9167H9.99974" stroke="#252B5C" stroke-width="1.6" stroke-linecap="round" stroke-linejoin="round"/>
<path d="M2.19141 7.08337H17.8081" stroke="#252B5C" stroke-width="1.6" stroke-linecap="round" stroke-linejoin="round"/>
<path d="M1.66683 9.99998C1.66683 14.6025 5.39766 18.3333 10.0002 18.3333C14.6027 18.3333 18.3335 14.6025 18.3335 9.99998C18.3335 5.39748 14.6027 1.66665 10.0002 1.66665" stroke="#252B5C" stroke-width="1.6" stroke-linecap="round" stroke-linejoin="round"/>
<path d="M9.16699 18.2916C9.16699 18.2916 6.66699 15 6.66699 9.99996" stroke="#252B5C" stroke-width="1.6" stroke-linecap="round" stroke-linejoin="round"/>
<path d="M10.8335 1.70829C10.8335 1.70829 13.3335 4.99996 13.3335 9.99996C13.3335 15 10.8335 18.2916 10.8335 18.2916" stroke="#252B5C" stroke-width="1.6" stroke-linecap="round" stroke-linejoin="round"/>
<path d="M17.8086 7.08331H10.0003" stroke="#252B5C" stroke-width="1.6" stroke-linecap="round" stroke-linejoin="round"/>
<path d="M17.8086 12.9166H2.19192" stroke="#252B5C" stroke-width="1.6" stroke-linecap="round" stroke-linejoin="round"/>
</svg>
